# xmcd
#
# Track frame offsets:
#       150
#       12460
#       25489
#       41058
#       56380
#       67362
#       82710
#       98868
#       119922
#       135250
#       148767
#       166210
#       179201
#
# Disc length: 2806 seconds
#
# Revision: 0
# Processed by: cddbd v1.5PL3 Copyright (c) Steve Scherf et al.
# Submitted via: WaveLab 4.01
#
DISCID=be0af40d
DTITLE=June Carter Cash - Wildwood Flower
DYEAR=2003
DGENRE=
TTITLE0=June Carter Cash - Keep on the sunny side (01)
TTITLE1=June Carter Cash - the road to kaintuck (02)
TTITLE2=June Carter Cash - (Carter girls intro) Kneeling Drunkard's Plea (03)
TTITLE3=June Carter Cash - Storms are in the ocean (04)
TTITLE4=June Carter Cash - (Little Julie Intro) Temptation (05)
TTITLE5=June Carter Cash - Big Yellow Peaches (06)
TTITLE6=June Carter Cash - Alcatraz (07)
TTITLE7=June Carter Cash - Sinking in the lonesome sea (08)
TTITLE8=June Carter Cash - Church in the wild wood - Lonesome valley (09)
TTITLE9=June Carter Cash - Cannonball blues (10)
TTITLE10=June Carter Cash - Will you miss me when I'm gone ? (11)
TTITLE11=June Carter Cash - Anchored in love (12)
TTITLE12=June Carter Cash - Wildwood Flower (13)
EXTD=
EXTT0=
EXTT1=
EXTT2=
EXTT3=
EXTT4=
EXTT5=
EXTT6=
EXTT7=
EXTT8=
EXTT9=
EXTT10=
EXTT11=
EXTT12=
PLAYORDER=
